<svg width="835" height="706" xmlns="http://www.w3.org/2000/svg" xmlns:xlink="http://www.w3.org/1999/xlink" xml:space="preserve" overflow="hidden"><defs><clipPath id="clip0"><rect x="139" y="14" width="835" height="706"/></clipPath><clipPath id="clip1"><rect x="674" y="88" width="308" height="638"/></clipPath><clipPath id="clip2"><rect x="674" y="88" width="308" height="638"/></clipPath><clipPath id="clip3"><rect x="505" y="88" width="640" height="638"/></clipPath><clipPath id="clip4"><rect x="681" y="104" width="290" height="305"/></clipPath><clipPath id="clip5"><rect x="733" y="358" width="177" height="352"/></clipPath><clipPath id="clip6"><rect x="209" y="86" width="307" height="638"/></clipPath><clipPath id="clip7"><rect x="209" y="86" width="307" height="638"/></clipPath><clipPath id="clip8"><rect x="41" y="86" width="637" height="638"/></clipPath><clipPath id="clip9"><rect x="216" y="102" width="288" height="305"/></clipPath><clipPath id="clip10"><rect x="267" y="356" width="177" height="352"/></clipPath></defs><g clip-path="url(#clip0)" transform="translate(-139 -14)"><g clip-path="url(#clip1)"><g clip-path="url(#clip2)"><g clip-path="url(#clip3)"><path d="M-63.634-63.634 699.974-63.634 699.974 699.974-63.634 699.974Z" fill="#FFFFFF" transform="matrix(1.00217 0 0 1 506.747 88.8311)"/><path d="M-63.634-63.634 699.974-63.634 699.974 699.974-63.634 699.974Z" fill="#FFFFFF" transform="matrix(1.00217 0 0 1 506.747 88.8311)"/><path d="M-63.634-63.634 699.974-63.634 699.974 699.974-63.634 699.974Z" fill="#FFFFFF" transform="matrix(1.00217 0 0 1 506.747 88.8311)"/><g clip-path="url(#clip4)"><path d="M452.696 288.904C452.483 288.501 452.299 288.315 452.299 288.315 448.188 279.691 438.392 258.751 435.442 244.653 432.512 231.151 427.415 217.827 417.996 207.857 417.783 207.665 417.598 207.665 417.406 207.46 414.854 204.723 412.899 201.587 412.116 198.054 409.571 188.271 404.851 167.523 403.692 151.276 402.319 131.504 387.617 116.629 366.824 113.679 366.824 113.679 350.557 102.133 339.196 101.165L335.848 80.0197C335.848 80.0197 342.715 69.4539 343.305 62.4077 343.305 62.4077 351.737 56.7271 343.305 46.1612 343.305 46.1612 348.993 18.3478 318.216 15.6102 287.434 18.3478 293.121 46.1612 293.121 46.1612 284.696 56.7271 293.121 62.4077 293.121 62.4077 293.71 69.4539 300.578 80.0197 300.578 80.0197L297.25 101.165C285.876 102.133 269.609 113.679 269.609 113.679 248.815 116.629 234.107 131.504 232.741 151.276 231.582 167.523 226.862 188.271 224.309 198.054 223.534 201.587 221.572 204.723 219.02 207.46 218.834 207.665 218.622 207.665 218.43 207.857 209.038 217.827 203.921 231.151 200.99 244.653 198.061 258.751 188.244 279.691 184.134 288.315 184.134 288.315 183.922 288.501 183.73 288.904 180.992 292.418 165.701 314.339 184.134 318.654 191.001 320.212 195.111 319.051 197.657 316.698 199.406 315.121 200.586 312.973 200.99 311.018 202.17 307.1 201.581 303.382 201.581 303.382 201.978 299.279 202.946 296.143 203.728 293.598 205.114 290.059 207.056 286.737 209.415 283.807 231.177 256.206 239.416 237.017 242.346 225.868 245.488 214.904 249.803 204.531 254.31 194.137 258.958 183.597 260.82 175.862 261.503 170.811 261.735 169.194 263.995 168.928 264.512 170.467 274.209 199.632 270.066 241.67 266.925 263.312 265.115 270.61 263.332 277.849 261.542 285.139 246.986 326.972 249.803 388.28 253.13 423.77 254.31 437.49 253.322 451.184 249.996 464.693 242.936 491.705 245.488 552.389 246.854 577.657 247.251 585.273 245.488 592.724 241.968 599.373L237.248 607.997C228.44 621.697 238.827 621.697 238.827 621.697L261.959 621.697C266.659 621.697 270.577 617.588 270.385 612.689 269.02 576.271 273.315 549.467 275.469 539.092 276.059 535.957 277.258 533.412 278.419 530.462 285.684 512.85 286.843 477.798 287.035 464.501 287.035 461.559 287.626 458.635 288.613 455.686 317.812 372.093 316.5 329.618 316.5 329.618L319.927 329.618C319.927 329.618 318.614 372.093 347.812 455.686 348.787 458.635 349.377 461.559 349.377 464.501 349.582 477.798 350.762 512.85 358.014 530.462 359.174 533.412 360.354 535.957 360.944 539.092 363.111 549.467 367.426 576.271 366.041 612.689 365.849 617.588 369.766 621.697 374.466 621.697L397.6 621.697C397.6 621.697 407.987 621.697 399.184 607.997L394.464 599.373C390.944 592.724 389.174 585.273 389.573 577.657 390.944 552.389 393.49 491.705 386.437 464.693 383.103 451.184 382.115 437.49 383.295 423.77 386.623 388.28 389.44 326.972 374.89 285.139 373.1 277.849 371.311 270.61 369.501 263.312 366.366 241.67 362.216 199.632 371.921 170.467 372.431 168.928 374.698 169.194 374.924 170.811 375.613 175.862 377.475 183.597 382.115 194.137 386.623 204.531 390.944 214.904 394.08 225.868 397.01 237.017 405.249 256.206 427.01 283.807 429.351 286.737 431.332 290.059 432.705 293.598 433.48 296.143 434.455 299.279 434.852 303.382 435.25 305.735 435.442 308.087 435.442 311.018 435.82 312.973 437.019 315.121 438.769 316.698 441.322 319.051 445.432 320.212 452.299 318.654 470.732 314.339 455.433 292.418 452.696 288.904" fill="#D4D4D4" transform="matrix(1.00217 0 0 1 506.747 88.8311)"/></g><g clip-path="url(#clip5)"><path d="M451.782 289.634C451.569 289.236 451.383 289.05 451.383 289.05 447.301 280.48 437.563 259.68 434.633 245.673 431.723 232.258 426.659 219.02 417.3 209.111 417.095 208.925 416.902 208.925 416.717 208.719 414.185 206.001 412.236 202.886 411.46 199.374 408.927 189.656 404.241 169.041 403.088 152.9 401.73 133.253 387.113 118.472 366.452 115.548 366.452 115.548 350.292 104.075 339.01 103.106L335.682 82.1011C335.682 82.1011 342.503 71.6081 343.093 64.6018 343.093 64.6018 351.465 58.9608 343.093 48.4678 343.093 48.4678 348.741 20.8335 318.163 18.1158 287.58 20.8335 293.227 48.4678 293.227 48.4678 284.854 58.9608 293.227 64.6018 293.227 64.6018 293.816 71.6081 300.637 82.1011 300.637 82.1011L297.33 103.106C286.028 104.075 269.867 115.548 269.867 115.548 249.206 118.472 234.597 133.253 233.231 152.9 232.078 169.041 227.392 189.656 224.86 199.374 224.085 202.886 222.136 206.001 219.604 208.719 219.418 208.925 219.206 208.925 219.02 209.111 209.681 219.02 204.596 232.258 201.687 245.673 198.777 259.68 189.019 280.48 184.936 289.05 184.936 289.05 184.731 289.236 184.539 289.634 181.821 293.127 166.622 314.908 184.936 319.19 191.764 320.742 195.847 319.589 198.379 317.249 200.116 315.684 201.289 313.55 201.687 311.607 202.86 307.717 202.27 304.018 202.27 304.018 202.668 299.942 203.635 296.826 204.411 294.3 205.79 290.788 207.718 287.487 210.058 284.577 231.681 257.154 239.867 238.084 242.776 227.008 245.899 216.116 250.188 205.809 254.669 195.482 259.282 185.009 261.131 177.326 261.814 172.309 262.039 170.705 264.286 170.44 264.797 171.964 274.441 200.937 270.319 242.711 267.203 264.214 265.407 271.459 263.631 278.65 261.854 285.895 247.39 327.463 250.188 388.372 253.495 423.63 254.669 437.258 253.687 450.867 250.38 464.289 243.367 491.129 245.899 551.414 247.257 576.518 247.656 584.087 245.899 591.49 242.399 598.093L237.712 606.664C228.963 620.272 239.283 620.272 239.283 620.272L262.265 620.272C266.938 620.272 270.828 616.195 270.644 611.323 269.278 575.145 273.554 548.512 275.687 538.204 276.271 535.089 277.464 532.557 278.618 529.634 285.836 512.134 286.989 477.314 287.181 464.097 287.181 461.174 287.764 458.264 288.746 455.34 317.765 372.291 316.46 330.088 316.46 330.088L319.86 330.088C319.86 330.088 318.554 372.291 347.574 455.34 348.535 458.264 349.119 461.174 349.119 464.097 349.331 477.314 350.504 512.134 357.703 529.634 358.856 532.557 360.029 535.089 360.613 538.204 362.767 548.512 367.062 575.145 365.677 611.323 365.491 616.195 369.382 620.272 374.055 620.272L397.036 620.272C397.036 620.272 407.356 620.272 398.607 606.664L393.921 598.093C390.42 591.49 388.665 584.087 389.062 576.518 390.42 551.414 392.953 491.129 385.94 464.289 382.632 450.867 381.652 437.258 382.824 423.63 386.133 388.372 388.929 327.463 374.466 285.895 372.69 278.65 370.914 271.459 369.117 264.214 366.002 242.711 361.878 200.937 371.523 171.964 372.033 170.44 374.28 170.705 374.506 172.309 375.188 177.326 377.038 185.009 381.652 195.482 386.133 205.809 390.42 216.116 393.543 227.008 396.453 238.084 404.64 257.154 426.262 284.577 428.588 287.487 430.55 290.788 431.915 294.3 432.684 296.826 433.653 299.942 434.05 304.018 434.447 306.358 434.633 308.697 434.633 311.607 435.011 313.55 436.204 315.684 437.941 317.249 440.473 319.589 444.556 320.742 451.383 319.19 469.698 314.908 454.499 293.127 451.782 289.634" fill="#D4D4D4" transform="matrix(1.00217 0 0 1 506.747 88.8311)"/></g></g></g></g><g clip-path="url(#clip6)"><g clip-path="url(#clip7)"><g clip-path="url(#clip8)"><path d="M-63.5597-63.5597 699.156-63.5597 699.156 699.156-63.5597 699.156Z" fill="#FFFFFF" transform="matrix(1 0 0 1.00117 42.1364 86.7883)"/><path d="M-63.5597-63.5597 699.156-63.5597 699.156 699.156-63.5597 699.156Z" fill="#FFFFFF" transform="matrix(1 0 0 1.00117 42.1364 86.7883)"/><path d="M-63.5597-63.5597 699.156-63.5597 699.156 699.156-63.5597 699.156Z" fill="#FFFFFF" transform="matrix(1 0 0 1.00117 42.1364 86.7883)"/><g clip-path="url(#clip9)"><path d="M452.168 288.568C451.955 288.164 451.77 287.979 451.77 287.979 447.665 279.364 437.879 258.449 434.934 244.367 432.007 230.88 426.916 217.572 417.508 207.615 417.295 207.423 417.11 207.423 416.918 207.218 414.369 204.483 412.417 201.352 411.635 197.822 409.093 188.051 404.379 167.328 403.22 151.1 401.85 131.35 387.164 116.493 366.395 113.547 366.395 113.547 350.147 102.013 338.8 101.047L335.456 79.9263C335.456 79.9263 342.315 69.3728 342.905 62.3349 342.905 62.3349 351.326 56.6608 342.905 46.1073 342.905 46.1073 348.585 18.3264 317.845 15.592 287.098 18.3264 292.779 46.1073 292.779 46.1073 284.364 56.6608 292.779 62.3349 292.779 62.3349 293.368 69.3728 300.227 79.9263 300.227 79.9263L296.903 101.047C285.541 102.013 269.294 113.547 269.294 113.547 248.525 116.493 233.834 131.35 232.469 151.1 231.311 167.328 226.597 188.051 224.048 197.822 223.273 201.352 221.313 204.483 218.764 207.218 218.579 207.423 218.368 207.423 218.175 207.615 208.793 217.572 203.683 230.88 200.756 244.367 197.83 258.449 188.024 279.364 183.919 287.979 183.919 287.979 183.707 288.164 183.516 288.568 180.781 292.076 165.507 313.971 183.919 318.281 190.778 319.837 194.883 318.679 197.426 316.329 199.173 314.753 200.352 312.607 200.756 310.655 201.934 306.742 201.345 303.028 201.345 303.028 201.742 298.929 202.709 295.798 203.49 293.255 204.874 289.72 206.814 286.402 209.171 283.476 230.907 255.908 239.137 236.74 242.063 225.604 245.201 214.652 249.512 204.291 254.013 193.91 258.655 183.383 260.515 175.657 261.197 170.611 261.429 168.996 263.687 168.731 264.203 170.267 273.89 199.399 269.751 241.388 266.613 263.005 264.805 270.294 263.024 277.524 261.237 284.806 246.697 326.591 249.512 387.827 252.835 423.274 254.013 436.98 253.028 450.658 249.704 464.151 242.653 491.131 245.201 551.744 246.565 576.983 246.962 584.59 245.201 592.032 241.686 598.672L236.971 607.286C228.173 620.972 238.547 620.972 238.547 620.972L261.654 620.972C266.348 620.972 270.261 616.866 270.069 611.974 268.705 575.599 272.995 548.824 275.147 538.463 275.736 535.331 276.935 532.789 278.094 529.843 285.35 512.252 286.509 477.24 286.701 463.959 286.701 461.019 287.29 458.1 288.276 455.153 317.441 371.658 316.13 329.233 316.13 329.233L319.553 329.233C319.553 329.233 318.241 371.658 347.406 455.153 348.379 458.1 348.969 461.019 348.969 463.959 349.175 477.24 350.353 512.252 357.596 529.843 358.754 532.789 359.933 535.331 360.522 538.463 362.687 548.824 366.998 575.599 365.614 611.974 365.422 616.866 369.335 620.972 374.029 620.972L397.135 620.972C397.135 620.972 407.51 620.972 398.718 607.286L394.004 598.672C390.488 592.032 388.721 584.59 389.117 576.983 390.488 551.744 393.031 491.131 385.986 464.151 382.656 450.658 381.669 436.98 382.848 423.274 386.172 387.827 388.985 326.591 374.453 284.806 372.664 277.524 370.877 270.294 369.07 263.005 365.938 241.388 361.794 199.399 371.487 170.267 371.996 168.731 374.26 168.996 374.485 170.611 375.174 175.657 377.035 183.383 381.669 193.91 386.172 204.291 390.488 214.652 393.62 225.604 396.547 236.74 404.776 255.908 426.512 283.476 428.849 286.402 430.828 289.72 432.199 293.255 432.974 295.798 433.947 298.929 434.344 303.028 434.742 305.378 434.934 307.729 434.934 310.655 435.311 312.607 436.509 314.753 438.258 316.329 440.806 318.679 444.911 319.837 451.77 318.281 470.183 313.971 454.902 292.076 452.168 288.568" fill="#D4D4D4" transform="matrix(1 0 0 1.00117 42.1364 86.7883)"/></g><g clip-path="url(#clip10)"><path d="M451.254 289.296C451.042 288.899 450.856 288.713 450.856 288.713 446.778 280.153 437.052 259.376 434.125 245.386 431.219 231.986 426.161 218.764 416.813 208.866 416.607 208.681 416.415 208.681 416.23 208.475 413.701 205.761 411.754 202.649 410.979 199.14 408.45 189.434 403.77 168.844 402.617 152.722 401.26 133.098 386.661 118.333 366.024 115.414 366.024 115.414 349.882 103.953 338.614 102.987L335.29 82.0052C335.29 82.0052 342.103 71.5245 342.692 64.5263 342.692 64.5263 351.055 58.892 342.692 48.4113 342.692 48.4113 348.333 20.8092 317.792 18.0946 287.244 20.8092 292.884 48.4113 292.884 48.4113 284.522 58.892 292.884 64.5263 292.884 64.5263 293.474 71.5245 300.286 82.0052 300.286 82.0052L296.983 102.987C285.694 103.953 269.553 115.414 269.553 115.414 248.916 118.333 234.324 133.098 232.96 152.722 231.808 168.844 227.126 189.434 224.597 199.14 223.823 202.649 221.876 205.761 219.347 208.475 219.162 208.681 218.949 208.681 218.764 208.866 209.435 218.764 204.357 231.986 201.451 245.386 198.544 259.376 188.799 280.153 184.72 288.713 184.72 288.713 184.516 288.899 184.323 289.296 181.609 292.785 166.427 314.541 184.72 318.818 191.54 320.367 195.618 319.215 198.148 316.878 199.881 315.315 201.054 313.184 201.451 311.243 202.623 307.357 202.034 303.663 202.034 303.663 202.431 299.591 203.397 296.48 204.172 293.956 205.549 290.448 207.476 287.151 209.813 284.244 231.41 256.854 239.587 237.806 242.493 226.743 245.611 215.865 249.895 205.569 254.371 195.254 258.98 184.794 260.826 177.12 261.508 172.107 261.734 170.505 263.978 170.24 264.488 171.764 274.121 200.702 270.003 242.427 266.891 263.905 265.096 271.142 263.323 278.325 261.548 285.562 247.102 327.081 249.895 387.919 253.199 423.135 254.371 436.748 253.391 450.34 250.087 463.747 243.083 490.555 245.611 550.771 246.969 575.844 247.367 583.405 245.611 590.8 242.116 597.394L237.435 605.955C228.696 619.548 239.004 619.548 239.004 619.548L261.959 619.548C266.626 619.548 270.513 615.476 270.327 610.61 268.963 574.473 273.233 547.871 275.366 537.575 275.949 534.464 277.14 531.935 278.292 529.015 285.502 511.536 286.654 476.757 286.846 463.555 286.846 460.636 287.429 457.729 288.408 454.81 317.395 371.857 316.09 329.702 316.09 329.702L319.487 329.702C319.487 329.702 318.182 371.857 347.168 454.81 348.128 457.729 348.711 460.636 348.711 463.555 348.922 476.757 350.095 511.536 357.285 529.015 358.436 531.935 359.609 534.464 360.192 537.575 362.343 547.871 366.634 574.473 365.249 610.61 365.064 615.476 368.95 619.548 373.618 619.548L396.572 619.548C396.572 619.548 406.882 619.548 398.142 605.955L393.461 597.394C389.965 590.8 388.21 583.405 388.608 575.844 389.965 550.771 392.494 490.555 385.49 463.747 382.186 450.34 381.206 436.748 382.378 423.135 385.681 387.919 388.475 327.081 374.029 285.562 372.254 278.325 370.48 271.142 368.685 263.905 365.574 242.427 361.456 200.702 371.089 171.764 371.599 170.24 373.843 170.505 374.068 172.107 374.75 177.12 376.597 184.794 381.206 195.254 385.681 205.569 389.965 215.865 393.084 226.743 395.99 237.806 404.166 256.854 425.763 284.244 428.087 287.151 430.047 290.448 431.411 293.956 432.18 296.48 433.146 299.591 433.544 303.663 433.94 306 434.125 308.337 434.125 311.243 434.504 313.184 435.695 315.315 437.43 316.878 439.959 319.215 444.037 320.367 450.856 318.818 469.15 314.541 453.968 292.785 451.254 289.296" fill="#D4D4D4" transform="matrix(1 0 0 1.00117 42.1364 86.7883)"/></g></g></g></g><path d="M403.968 50.56 403.968 724.5" stroke="#2F5597" stroke-width="3.06424" stroke-miterlimit="8" stroke-dasharray="9.19271 3.06424" fill="none" fill-rule="evenodd" transform="matrix(1.00092 0 0 1 -44.0357 -0.03175)"/><path d="M869.732 49.5386 869.732 723.478" stroke="#2F5597" stroke-width="3.06424" stroke-miterlimit="8" stroke-dasharray="9.19271 3.06424" fill="none" fill-rule="evenodd" transform="matrix(1.00092 0 0 1 -44.0357 -0.03175)"/><text fill="#203864" font-family="Calibri,Calibri_MSFontService,sans-serif" font-weight="700" font-size="21" transform="matrix(1.02235 0 0 1.02141 291.831 78)">Right<tspan font-size="21" x="91.0745" y="0">Left</tspan><tspan fill="#000000" font-weight="400" font-size="21" x="558.371" y="309.376">R Hip</tspan><tspan fill="#2F5597" font-size="29" x="-3.32485" y="-42.0986">Front View</tspan><tspan font-size="21" x="539.929" y="0">Right</tspan><tspan fill="#2F5597" font-size="29" x="463.006" y="-40.1405">Back View</tspan><tspan font-size="21" x="457.627" y="0">Left</tspan></text><path d="M306.934 259.439C306.934 255.208 310.593 251.778 315.106 251.778 319.618 251.778 323.277 255.208 323.277 259.439 323.277 263.669 319.618 267.099 315.106 267.099 310.593 267.099 306.934 263.669 306.934 259.439Z" stroke="#203864" stroke-width="1.36188" stroke-miterlimit="8" fill="#203864" fill-rule="evenodd" transform="matrix(1.00092 0 0 1 -44.0357 -0.03175)"/><path d="M344.727 201.218C344.727 196.987 348.156 193.558 352.387 193.558 356.618 193.558 360.048 196.987 360.048 201.218 360.048 205.449 356.618 208.879 352.387 208.879 348.156 208.879 344.727 205.449 344.727 201.218Z" stroke="#203864" stroke-width="1.36188" stroke-miterlimit="8" fill="#203864" fill-rule="evenodd" transform="matrix(1.00092 0 0 1 -44.0357 -0.03175)"/><path d="M438.696 201.218C438.696 196.987 442.355 193.558 446.868 193.558 451.38 193.558 455.039 196.987 455.039 201.218 455.039 205.449 451.38 208.879 446.868 208.879 442.355 208.879 438.696 205.449 438.696 201.218Z" stroke="#203864" stroke-width="1.36188" stroke-miterlimit="8" fill="#203864" fill-rule="evenodd" transform="matrix(1.00092 0 0 1 -44.0357 -0.03175)"/><path d="M483.639 259.439C483.639 255.208 487.068 251.778 491.299 251.778 495.53 251.778 498.96 255.208 498.96 259.439 498.96 263.669 495.53 267.099 491.299 267.099 487.068 267.099 483.639 263.669 483.639 259.439Z" stroke="#203864" stroke-width="1.36188" stroke-miterlimit="8" fill="#203864" fill-rule="evenodd" transform="matrix(1.00092 0 0 1 -44.0357 -0.03175)"/><path d="M281.399 324.809C281.399 320.578 284.829 317.148 289.06 317.148 293.29 317.148 296.72 320.578 296.72 324.809 296.72 329.04 293.29 332.47 289.06 332.47 284.829 332.47 281.399 329.04 281.399 324.809Z" stroke="#203864" stroke-width="1.36188" stroke-miterlimit="8" fill="#203864" fill-rule="evenodd" transform="matrix(1.00092 0 0 1 -44.0357 -0.03175)"/><path d="M508.152 323.788C508.152 319.557 511.582 316.127 515.813 316.127 520.044 316.127 523.474 319.557 523.474 323.788 523.474 328.018 520.044 331.448 515.813 331.448 511.582 331.448 508.152 328.018 508.152 323.788Z" stroke="#203864" stroke-width="1.36188" stroke-miterlimit="8" fill="#203864" fill-rule="evenodd" transform="matrix(1.00092 0 0 1 -44.0357 -0.03175)"/><path d="M266.078 389.158C266.078 384.927 269.508 381.497 273.738 381.497 277.969 381.497 281.399 384.927 281.399 389.158 281.399 393.389 277.969 396.819 273.738 396.819 269.508 396.819 266.078 393.389 266.078 389.158Z" stroke="#203864" stroke-width="1.36188" stroke-miterlimit="8" fill="#203864" fill-rule="evenodd" transform="matrix(1.00092 0 0 1 -44.0357 -0.03175)"/><path d="M525.516 389.158C525.516 384.927 528.946 381.497 533.177 381.497 537.408 381.497 540.838 384.927 540.838 389.158 540.838 393.389 537.408 396.819 533.177 396.819 528.946 396.819 525.516 393.389 525.516 389.158Z" stroke="#203864" stroke-width="1.36188" stroke-miterlimit="8" fill="#203864" fill-rule="evenodd" transform="matrix(1.00092 0 0 1 -44.0357 -0.03175)"/><path d="M329.405 467.807C329.405 463.576 332.835 460.146 337.066 460.146 341.297 460.146 344.727 463.576 344.727 467.807 344.727 472.037 341.297 475.467 337.066 475.467 332.835 475.467 329.405 472.037 329.405 467.807Z" stroke="#203864" stroke-width="1.36188" stroke-miterlimit="8" fill="#203864" fill-rule="evenodd" transform="matrix(1.00092 0 0 1 -44.0357 -0.03175)"/><path d="M462.189 467.807C462.189 463.576 465.619 460.146 469.85 460.146 474.08 460.146 477.51 463.576 477.51 467.807 477.51 472.037 474.08 475.467 469.85 475.467 465.619 475.467 462.189 472.037 462.189 467.807Z" stroke="#203864" stroke-width="1.36188" stroke-miterlimit="8" fill="#203864" fill-rule="evenodd" transform="matrix(1.00092 0 0 1 -44.0357 -0.03175)"/><path d="M323.277 622.04C323.277 617.809 326.936 614.379 331.448 614.379 335.961 614.379 339.62 617.809 339.62 622.04 339.62 626.271 335.961 629.701 331.448 629.701 326.936 629.701 323.277 626.271 323.277 622.04Z" stroke="#203864" stroke-width="1.36188" stroke-miterlimit="8" fill="#203864" fill-rule="evenodd" transform="matrix(1.00092 0 0 1 -44.0357 -0.03175)"/><path d="M463.21 622.04C463.21 617.809 466.64 614.379 470.871 614.379 475.102 614.379 478.532 617.809 478.532 622.04 478.532 626.271 475.102 629.701 470.871 629.701 466.64 629.701 463.21 626.271 463.21 622.04Z" stroke="#203864" stroke-width="1.36188" stroke-miterlimit="8" fill="#203864" fill-rule="evenodd" transform="matrix(1.00092 0 0 1 -44.0357 -0.03175)"/><path d="M329.405 690.475C329.405 686.244 332.835 682.814 337.066 682.814 341.297 682.814 344.727 686.244 344.727 690.475 344.727 694.705 341.297 698.135 337.066 698.135 332.835 698.135 329.405 694.705 329.405 690.475Z" stroke="#203864" stroke-width="1.36188" stroke-miterlimit="8" fill="#203864" fill-rule="evenodd" transform="matrix(1.00092 0 0 1 -44.0357 -0.03175)"/><path d="M462.189 690.475C462.189 686.244 465.619 682.814 469.85 682.814 474.08 682.814 477.51 686.244 477.51 690.475 477.51 694.705 474.08 698.135 469.85 698.135 465.619 698.135 462.189 694.705 462.189 690.475Z" stroke="#203864" stroke-width="1.36188" stroke-miterlimit="8" fill="#203864" fill-rule="evenodd" transform="matrix(1.00092 0 0 1 -44.0357 -0.03175)"/><path d="M832.961 223.689C832.961 219.459 836.391 216.029 840.622 216.029 844.853 216.029 848.283 219.459 848.283 223.689 848.283 227.92 844.853 231.35 840.622 231.35 836.391 231.35 832.961 227.92 832.961 223.689Z" stroke="#203864" stroke-width="1.36188" stroke-miterlimit="8" fill="#203864" fill-rule="evenodd" transform="matrix(1.00092 0 0 1 -44.0357 -0.03175)"/><path d="M893.225 224.711C893.225 220.48 896.655 217.05 900.885 217.05 905.116 217.05 908.546 220.48 908.546 224.711 908.546 228.941 905.116 232.371 900.885 232.371 896.655 232.371 893.225 228.941 893.225 224.711Z" stroke="#203864" stroke-width="1.36188" stroke-miterlimit="8" fill="#203864" fill-rule="evenodd" transform="matrix(1.00092 0 0 1 -44.0357 -0.03175)"/><path d="M861.561 275.781C861.561 271.551 864.991 268.121 869.222 268.121 873.452 268.121 876.882 271.551 876.882 275.781 876.882 280.012 873.452 283.442 869.222 283.442 864.991 283.442 861.561 280.012 861.561 275.781Z" stroke="#203864" stroke-width="1.36188" stroke-miterlimit="8" fill="#203864" fill-rule="evenodd" transform="matrix(1.00092 0 0 1 -44.0357 -0.03175)"/><path d="M860.54 332.98C860.54 328.75 863.969 325.32 868.2 325.32 872.431 325.32 875.861 328.75 875.861 332.98 875.861 337.211 872.431 340.641 868.2 340.641 863.969 340.641 860.54 337.211 860.54 332.98Z" stroke="#203864" stroke-width="1.36188" stroke-miterlimit="8" fill="#203864" fill-rule="evenodd" transform="matrix(1.00092 0 0 1 -44.0357 -0.03175)"/><path d="M840.111 387.115C840.111 382.884 843.541 379.455 847.772 379.455 852.003 379.455 855.433 382.884 855.433 387.115 855.433 391.346 852.003 394.776 847.772 394.776 843.541 394.776 840.111 391.346 840.111 387.115Z" stroke="#203864" stroke-width="1.36188" stroke-miterlimit="8" fill="#203864" fill-rule="evenodd" transform="matrix(1.00092 0 0 1 -44.0357 -0.03175)"/><path d="M880.968 387.115C880.968 382.884 884.398 379.455 888.628 379.455 892.859 379.455 896.289 382.884 896.289 387.115 896.289 391.346 892.859 394.776 888.628 394.776 884.398 394.776 880.968 391.346 880.968 387.115Z" stroke="#203864" stroke-width="1.36188" stroke-miterlimit="8" fill="#203864" fill-rule="evenodd" transform="matrix(1.00092 0 0 1 -44.0357 -0.03175)"/><text font-family="Calibri,Calibri_MSFontService,sans-serif" font-weight="400" font-size="21" transform="matrix(1.02235 0 0 1.02141 738.565 393)">L<tspan font-size="21" x="13.8333" y="0">Hip</tspan><tspan font-size="21" x="97.09" y="-45.0357">Lumba</tspan><tspan font-size="21" x="155.09" y="-45.0357">r</tspan><tspan font-size="21" x="-4.61127" y="-108.673">Thoracic</tspan><tspan font-size="21" x="-36.5829" y="-160.562">L</tspan><tspan font-size="21" x="-22.7496" y="-160.562">Scapula</tspan><tspan font-size="21" x="133.081" y="-160.562">R</tspan><tspan font-size="21" x="149.581" y="-160.562">Scapula</tspan><tspan font-size="21" x="-526.467" y="78.323">R Femur</tspan><tspan font-size="21" x="-517.455" y="230.074">R Tibi</tspan><tspan font-size="21" x="-470.455" y="230.074">a</tspan><tspan font-size="21" x="-520.72" y="295.669">R Foot</tspan><tspan font-size="21" x="-287.449" y="79.302">L Femur</tspan><tspan font-size="21" x="-286.322" y="230.074">L</tspan><tspan font-size="21" x="-272.488" y="230.074">Tibia</tspan><tspan font-size="21" x="-281.571" y="295.669">L</tspan><tspan font-size="21" x="-267.738" y="295.669">Foot</tspan><tspan font-size="21" x="-313.525" y="-189.933">L</tspan><tspan font-size="21" x="-299.691" y="-189.933">Shoulder</tspan><tspan font-size="21" x="-270.233" y="-124.338">L</tspan><tspan font-size="21" x="-256.399" y="-124.338">Bicep</tspan><tspan font-size="21" x="-242.718" y="-65.5955">L</tspan><tspan font-size="21" x="-228.885" y="-65.5955">Forearm</tspan><tspan font-size="21" x="-221.615" y="3.91615">L</tspan><tspan font-size="21" x="-207.782" y="3.91615">Hand</tspan><tspan font-size="21" x="-521.67" y="-189.933">R </tspan>Shoulder<tspan font-size="21" x="-536.653" y="-124.338">R</tspan><tspan font-size="21" x="-520.153" y="-124.338">Bicep</tspan><tspan font-size="21" x="-586.77" y="-65.5955">R</tspan><tspan font-size="21" x="-570.27" y="-65.5955">Forearm</tspan><tspan font-size="21" x="-577.367" y="3.91615">R Hand</tspan></text></g></svg>