<svg xmlns="http://www.w3.org/2000/svg" xmlns:xlink="http://www.w3.org/1999/xlink" width="500" zoomAndPan="magnify" viewBox="0 0 375 374.999991" height="500" preserveAspectRatio="xMidYMid meet" version="1.0"><defs><clipPath id="263a101a45"><path d="M 103 9.226562 L 272 9.226562 L 272 188.363281 L 103 188.363281 Z M 103 9.226562 " clip-rule="nonzero"/></clipPath><clipPath id="a152470aa0"><path d="M 133.617188 158.976562 L 236.476562 158.976562 L 236.476562 365.507812 L 133.617188 365.507812 Z M 133.617188 158.976562 " clip-rule="nonzero"/></clipPath></defs><rect x="-37.5" width="450" fill="#ffffff" y="-37.499999" height="449.999989" fill-opacity="1"/><rect x="-37.5" width="450" fill="#ffffff" y="-37.499999" height="449.999989" fill-opacity="1"/><rect x="-37.5" width="450" fill="#ffffff" y="-37.499999" height="449.999989" fill-opacity="1"/><g clip-path="url(#263a101a45)"><path fill="#d4d4d4" d="M 266.777344 170.253906 C 266.652344 170.015625 266.542969 169.90625 266.542969 169.90625 C 264.121094 164.824219 258.347656 152.484375 256.609375 144.175781 C 254.882812 136.21875 251.878906 128.367188 246.328125 122.492188 C 246.203125 122.378906 246.09375 122.378906 245.980469 122.257812 C 244.476562 120.644531 243.324219 118.796875 242.863281 116.714844 C 241.363281 110.949219 238.582031 98.722656 237.898438 89.148438 C 237.089844 77.496094 228.425781 68.730469 216.171875 66.992188 C 216.171875 66.992188 206.585938 60.1875 199.890625 59.617188 L 197.917969 47.15625 C 197.917969 47.15625 201.964844 40.929688 202.3125 36.777344 C 202.3125 36.777344 207.28125 33.429688 202.3125 27.203125 C 202.3125 27.203125 205.664062 10.8125 187.527344 9.199219 C 169.386719 10.8125 172.738281 27.203125 172.738281 27.203125 C 167.773438 33.429688 172.738281 36.777344 172.738281 36.777344 C 173.085938 40.929688 177.132812 47.15625 177.132812 47.15625 L 175.171875 59.617188 C 168.46875 60.1875 158.882812 66.992188 158.882812 66.992188 C 146.628906 68.730469 137.960938 77.496094 137.15625 89.148438 C 136.472656 98.722656 133.691406 110.949219 132.1875 116.714844 C 131.730469 118.796875 130.574219 120.644531 129.070312 122.257812 C 128.960938 122.378906 128.835938 122.378906 128.722656 122.492188 C 123.1875 128.367188 120.171875 136.21875 118.445312 144.175781 C 116.71875 152.484375 110.933594 164.824219 108.511719 169.90625 C 108.511719 169.90625 108.386719 170.015625 108.273438 170.253906 C 106.660156 172.324219 97.648438 185.242188 108.511719 187.785156 C 112.558594 188.703125 114.980469 188.019531 116.480469 186.632812 C 117.511719 185.703125 118.207031 184.4375 118.445312 183.285156 C 119.140625 180.976562 118.792969 178.785156 118.792969 178.785156 C 119.027344 176.367188 119.597656 174.519531 120.058594 173.019531 C 120.875 170.933594 122.019531 168.976562 123.410156 167.25 C 136.234375 150.984375 141.089844 139.675781 142.816406 133.105469 C 144.667969 126.644531 147.210938 120.53125 149.867188 114.40625 C 152.605469 108.195312 153.703125 103.636719 154.105469 100.660156 C 154.242188 99.707031 155.574219 99.550781 155.878906 100.457031 C 161.59375 117.644531 159.152344 142.417969 157.300781 155.171875 C 156.234375 159.472656 155.183594 163.738281 154.128906 168.035156 C 145.550781 192.6875 147.210938 228.816406 149.171875 249.730469 C 149.867188 257.816406 149.285156 265.886719 147.324219 273.847656 C 143.164062 289.765625 144.667969 325.527344 145.472656 340.417969 C 145.707031 344.90625 144.667969 349.296875 142.59375 353.214844 L 139.8125 358.296875 C 134.621094 366.371094 140.742188 366.371094 140.742188 366.371094 L 154.375 366.371094 C 157.144531 366.371094 159.453125 363.949219 159.339844 361.0625 C 158.535156 339.601562 161.066406 323.804688 162.335938 317.691406 C 162.683594 315.84375 163.390625 314.34375 164.074219 312.605469 C 168.355469 302.226562 169.039062 281.570312 169.152344 273.734375 C 169.152344 272 169.5 270.277344 170.082031 268.539062 C 187.289062 219.277344 186.515625 194.246094 186.515625 194.246094 L 188.535156 194.246094 C 188.535156 194.246094 187.761719 219.277344 204.96875 268.539062 C 205.542969 270.277344 205.890625 272 205.890625 273.734375 C 206.011719 281.570312 206.707031 302.226562 210.980469 312.605469 C 211.664062 314.34375 212.359375 315.84375 212.707031 317.691406 C 213.984375 323.804688 216.527344 339.601562 215.710938 361.0625 C 215.597656 363.949219 217.90625 366.371094 220.675781 366.371094 L 234.308594 366.371094 C 234.308594 366.371094 240.429688 366.371094 235.242188 358.296875 L 232.460938 353.214844 C 230.386719 349.296875 229.34375 344.90625 229.578125 340.417969 C 230.386719 325.527344 231.886719 289.765625 227.730469 273.847656 C 225.765625 265.886719 225.183594 257.816406 225.878906 249.730469 C 227.839844 228.816406 229.5 192.6875 220.925781 168.035156 C 219.871094 163.738281 218.816406 159.472656 217.75 155.171875 C 215.902344 142.417969 213.457031 117.644531 219.175781 100.457031 C 219.476562 99.550781 220.8125 99.707031 220.945312 100.660156 C 221.351562 103.636719 222.449219 108.195312 225.183594 114.40625 C 227.839844 120.53125 230.386719 126.644531 232.234375 133.105469 C 233.960938 139.675781 238.816406 150.984375 251.640625 167.25 C 253.019531 168.976562 254.1875 170.933594 254.996094 173.019531 C 255.453125 174.519531 256.027344 176.367188 256.261719 178.785156 C 256.496094 180.171875 256.609375 181.558594 256.609375 183.285156 C 256.832031 184.4375 257.539062 185.703125 258.570312 186.632812 C 260.074219 188.019531 262.496094 188.703125 266.542969 187.785156 C 277.40625 185.242188 268.390625 172.324219 266.777344 170.253906 " fill-opacity="1" fill-rule="nonzero"/></g><g clip-path="url(#a152470aa0)"><path fill="#d4d4d4" d="M 266.238281 170.683594 C 266.113281 170.449219 266.003906 170.339844 266.003906 170.339844 C 263.597656 165.289062 257.859375 153.03125 256.132812 144.777344 C 254.417969 136.871094 251.433594 129.070312 245.917969 123.230469 C 245.796875 123.121094 245.683594 123.121094 245.574219 123 C 244.082031 121.398438 242.933594 119.5625 242.476562 117.492188 C 240.984375 111.765625 238.222656 99.617188 237.542969 90.105469 C 236.742188 78.527344 228.128906 69.816406 215.953125 68.09375 C 215.953125 68.09375 206.429688 61.332031 199.78125 60.761719 L 197.820312 48.382812 C 197.820312 48.382812 201.839844 42.199219 202.1875 38.070312 C 202.1875 38.070312 207.121094 34.746094 202.1875 28.5625 C 202.1875 28.5625 205.515625 12.277344 187.496094 10.675781 C 169.472656 12.277344 172.800781 28.5625 172.800781 28.5625 C 167.867188 34.746094 172.800781 38.070312 172.800781 38.070312 C 173.148438 42.199219 177.167969 48.382812 177.167969 48.382812 L 175.21875 60.761719 C 168.558594 61.332031 159.035156 68.09375 159.035156 68.09375 C 146.859375 69.816406 138.25 78.527344 137.445312 90.105469 C 136.765625 99.617188 134.003906 111.765625 132.511719 117.492188 C 132.054688 119.5625 130.90625 121.398438 129.414062 123 C 129.304688 123.121094 129.179688 123.121094 129.070312 123.230469 C 123.566406 129.070312 120.570312 136.871094 118.855469 144.777344 C 117.140625 153.03125 111.390625 165.289062 108.984375 170.339844 C 108.984375 170.339844 108.863281 170.449219 108.75 170.683594 C 107.148438 172.742188 98.191406 185.578125 108.984375 188.101562 C 113.007812 189.015625 115.414062 188.335938 116.90625 186.957031 C 117.929688 186.035156 118.621094 184.777344 118.855469 183.632812 C 119.546875 181.339844 119.199219 179.160156 119.199219 179.160156 C 119.433594 176.757812 120.003906 174.921875 120.460938 173.433594 C 121.273438 171.363281 122.410156 169.417969 123.789062 167.703125 C 136.53125 151.542969 141.355469 140.304688 143.070312 133.777344 C 144.910156 127.359375 147.4375 121.285156 150.078125 115.199219 C 152.796875 109.027344 153.886719 104.5 154.289062 101.542969 C 154.421875 100.597656 155.746094 100.441406 156.046875 101.339844 C 161.730469 118.414062 159.300781 143.03125 157.464844 155.703125 C 156.40625 159.972656 155.359375 164.210938 154.3125 168.480469 C 145.789062 192.976562 147.4375 228.871094 149.386719 249.648438 C 150.078125 257.679688 149.5 265.699219 147.550781 273.609375 C 143.417969 289.425781 144.910156 324.953125 145.710938 339.746094 C 145.945312 344.207031 144.910156 348.570312 142.847656 352.460938 L 140.085938 357.511719 C 134.929688 365.53125 141.011719 365.53125 141.011719 365.53125 L 154.554688 365.53125 C 157.308594 365.53125 159.601562 363.128906 159.492188 360.257812 C 158.6875 338.9375 161.207031 323.242188 162.464844 317.167969 C 162.808594 315.332031 163.511719 313.839844 164.191406 312.117188 C 168.445312 301.804688 169.125 281.285156 169.238281 273.496094 C 169.238281 271.773438 169.582031 270.058594 170.160156 268.335938 C 187.261719 219.394531 186.492188 194.523438 186.492188 194.523438 L 188.496094 194.523438 C 188.496094 194.523438 187.726562 219.394531 204.828125 268.335938 C 205.394531 270.058594 205.738281 271.773438 205.738281 273.496094 C 205.863281 281.285156 206.554688 301.804688 210.796875 312.117188 C 211.476562 313.839844 212.167969 315.332031 212.511719 317.167969 C 213.78125 323.242188 216.3125 338.9375 215.496094 360.257812 C 215.386719 363.128906 217.679688 365.53125 220.433594 365.53125 L 233.976562 365.53125 C 233.976562 365.53125 240.058594 365.53125 234.902344 357.511719 L 232.140625 352.460938 C 230.078125 348.570312 229.042969 344.207031 229.277344 339.746094 C 230.078125 324.953125 231.570312 289.425781 227.4375 273.609375 C 225.488281 265.699219 224.910156 257.679688 225.601562 249.648438 C 227.550781 228.871094 229.199219 192.976562 220.675781 168.480469 C 219.628906 164.210938 218.582031 159.972656 217.523438 155.703125 C 215.6875 143.03125 213.257812 118.414062 218.941406 101.339844 C 219.242188 100.441406 220.566406 100.597656 220.699219 101.542969 C 221.101562 104.5 222.191406 109.027344 224.910156 115.199219 C 227.550781 121.285156 230.078125 127.359375 231.917969 133.777344 C 233.632812 140.304688 238.457031 151.542969 251.199219 167.703125 C 252.570312 169.417969 253.726562 171.363281 254.53125 173.433594 C 254.984375 174.921875 255.554688 176.757812 255.789062 179.160156 C 256.023438 180.539062 256.132812 181.917969 256.132812 183.632812 C 256.355469 184.777344 257.058594 186.035156 258.082031 186.957031 C 259.574219 188.335938 261.980469 189.015625 266.003906 188.101562 C 276.796875 185.578125 267.839844 172.742188 266.238281 170.683594 " fill-opacity="1" fill-rule="nonzero"/></g></svg>