<svg width="825" height="704" xmlns="http://www.w3.org/2000/svg" xmlns:xlink="http://www.w3.org/1999/xlink" xml:space="preserve" overflow="hidden"><defs><clipPath id="clip0"><rect x="186" y="16" width="825" height="704"/></clipPath><clipPath id="clip1"><rect x="696" y="83" width="316" height="645"/></clipPath><clipPath id="clip2"><rect x="696" y="83" width="316" height="645"/></clipPath><clipPath id="clip3"><rect x="522" y="83" width="646" height="645"/></clipPath><clipPath id="clip4"><rect x="692" y="98" width="307" height="614"/></clipPath><clipPath id="clip5"><rect x="239" y="83" width="317" height="645"/></clipPath><clipPath id="clip6"><rect x="239" y="83" width="317" height="645"/></clipPath><clipPath id="clip7"><rect x="65" y="83" width="647" height="645"/></clipPath><clipPath id="clip8"><rect x="235" y="98" width="308" height="614"/></clipPath></defs><g clip-path="url(#clip0)" transform="translate(-186 -16)"><g clip-path="url(#clip1)"><g clip-path="url(#clip2)"><g clip-path="url(#clip3)"><path d="M-64.4762-64.4762 709.238-64.4762 709.238 709.238-64.4762 709.238Z" fill="#FFFFFF" transform="matrix(1 0 0 1.00036 522.233 83.0014)"/><path d="M-64.4762-64.4762 709.238-64.4762 709.238 709.238-64.4762 709.238Z" fill="#FFFFFF" transform="matrix(1 0 0 1.00036 522.233 83.0014)"/><g clip-path="url(#clip4)"><path d="M562.152 50.4996C561.789 49.8079 561.461 49.4788 561.461 49.4788 554.341 34.5217 537.37-1.78652 532.258-26.2338 527.18-49.6601 518.349-72.7574 502.041-90.0585 501.679-90.3876 501.343-90.3876 501.014-90.7503 496.602-95.492 493.202-100.932 491.853-107.058 487.44-124.023 479.267-160.002 477.252-188.177 474.881-222.476 449.406-248.274 413.387-253.378 413.387-253.378 385.205-273.413 365.533-275.091L359.73-311.763C359.73-311.763 371.632-330.084 372.652-342.309 372.652-342.309 387.254-352.154 372.652-370.476 372.652-370.476 382.505-418.713 329.185-423.454 275.858-418.713 285.71-370.476 285.71-370.476 271.116-352.154 285.71-342.309 285.71-342.309 286.737-330.084 298.633-311.763 298.633-311.763L292.864-275.091C273.158-273.413 244.976-253.378 244.976-253.378 208.957-248.274 183.482-222.476 181.111-188.177 179.096-160.002 170.929-124.023 166.51-107.058 165.16-100.932 161.762-95.492 157.349-90.7503 157.02-90.3876 156.657-90.3876 156.328-90.0585 140.048-72.7574 131.182-49.6601 126.104-26.2338 121.028-1.78652 104.022 34.5217 96.9091 49.4788 96.9091 49.4788 96.5464 49.8079 96.2173 50.4996 91.4689 56.598 64.9732 94.6189 96.9091 102.094 108.803 104.801 115.923 102.786 120.335 98.7024 123.371 95.9688 125.413 92.248 126.104 88.8496 128.146 82.0662 127.126 75.6051 127.126 75.6051 127.818 68.4925 129.503 63.0523 130.853 58.6397 133.258 52.5078 136.616 46.7452 140.706 41.6678 178.404-6.20584 192.676-39.4783 197.754-58.8211 203.188-77.8349 210.669-95.8211 218.48-113.847 226.527-132.129 229.75-145.542 230.939-154.306 231.335-157.107 235.258-157.564 236.144-154.897 252.955-104.324 245.768-31.4053 240.336 6.11852 237.198 18.7719 234.102 31.3247 231.006 43.9782 205.794 116.527 210.669 222.853 216.438 284.401 218.48 308.19 216.767 331.945 210.998 355.371 198.775 402.217 203.188 507.455 205.565 551.278 206.257 564.49 203.188 577.404 197.096 588.936L188.922 603.893C173.663 627.65 191.656 627.65 191.656 627.65L231.732 627.65C239.871 627.65 246.662 620.537 246.333 612.034 243.955 548.874 251.403 502.383 255.131 484.391 256.152 478.957 258.228 474.538 260.235 469.434 272.829 438.889 274.836 378.1 275.165 355.036 275.165 349.931 276.187 344.86 277.899 339.75 328.493 194.779 326.216 121.108 326.216 121.108L332.147 121.108C332.147 121.108 329.876 194.779 380.464 339.75 382.142 344.86 383.164 349.931 383.164 355.036 383.526 378.1 385.567 438.889 398.128 469.434 400.135 474.538 402.184 478.957 403.204 484.391 406.959 502.383 414.441 548.874 412.036 612.034 411.707 620.537 418.491 627.65 426.631 627.65L466.707 627.65C466.707 627.65 484.7 627.65 469.447 603.893L461.273 588.936C455.175 577.404 452.112 564.49 452.804 551.278 455.175 507.455 459.588 402.217 447.365 355.371 441.595 331.945 439.882 308.19 441.924 284.401 447.694 222.853 452.569 116.527 427.357 43.9782 424.261 31.3247 421.164 18.7719 418.035 6.11852 412.594-31.4053 405.407-104.324 422.219-154.897 423.105-157.564 427.028-157.107 427.424-154.306 428.612-145.542 431.843-132.129 439.882-113.847 447.694-95.8211 455.175-77.8349 460.609-58.8211 465.686-39.4783 479.959-6.20584 517.657 41.6678 521.713 46.7452 525.138 52.5078 527.516 58.6397 528.867 63.0523 530.545 68.4925 531.237 75.6051 531.929 79.6953 532.258 83.7788 532.258 88.8496 532.916 92.248 534.992 95.9688 538.027 98.7024 542.44 102.786 549.559 104.801 561.461 102.094 593.396 94.6189 566.894 56.598 562.152 50.4996" fill="#D4D4D4" transform="matrix(1 0 0 1.00036 522.233 83.0014)"/></g></g></g></g><g clip-path="url(#clip5)"><g clip-path="url(#clip6)"><g clip-path="url(#clip7)"><path d="M-64.4762-64.4762 709.238-64.4762 709.238 709.238-64.4762 709.238Z" fill="#FFFFFF" transform="matrix(1 0 0 1.00036 66.0766 83.0014)"/><path d="M-64.4762-64.4762 709.238-64.4762 709.238 709.238-64.4762 709.238Z" fill="#FFFFFF" transform="matrix(1 0 0 1.00036 66.0766 83.0014)"/><g clip-path="url(#clip8)"><path d="M562.152 50.4996C561.789 49.8079 561.461 49.4788 561.461 49.4788 554.341 34.5217 537.37-1.78652 532.258-26.2338 527.18-49.6601 518.349-72.7574 502.041-90.0585 501.679-90.3876 501.343-90.3876 501.014-90.7503 496.602-95.492 493.202-100.932 491.853-107.058 487.44-124.023 479.267-160.002 477.252-188.177 474.881-222.476 449.406-248.274 413.387-253.378 413.387-253.378 385.205-273.413 365.533-275.091L359.73-311.763C359.73-311.763 371.632-330.084 372.652-342.309 372.652-342.309 387.254-352.154 372.652-370.476 372.652-370.476 382.505-418.713 329.185-423.454 275.858-418.713 285.71-370.476 285.71-370.476 271.116-352.154 285.71-342.309 285.71-342.309 286.737-330.084 298.633-311.763 298.633-311.763L292.864-275.091C273.158-273.413 244.976-253.378 244.976-253.378 208.957-248.274 183.482-222.476 181.111-188.177 179.096-160.002 170.929-124.023 166.51-107.058 165.16-100.932 161.762-95.492 157.349-90.7503 157.02-90.3876 156.657-90.3876 156.328-90.0585 140.048-72.7574 131.182-49.6601 126.104-26.2338 121.028-1.78652 104.022 34.5217 96.9091 49.4788 96.9091 49.4788 96.5464 49.8079 96.2173 50.4996 91.4689 56.598 64.9732 94.6189 96.9091 102.094 108.803 104.801 115.923 102.786 120.335 98.7024 123.371 95.9688 125.413 92.248 126.104 88.8496 128.146 82.0662 127.126 75.6051 127.126 75.6051 127.818 68.4925 129.503 63.0523 130.853 58.6397 133.258 52.5078 136.616 46.7452 140.706 41.6678 178.404-6.20584 192.676-39.4783 197.754-58.8211 203.188-77.8349 210.669-95.8211 218.48-113.847 226.527-132.129 229.75-145.542 230.939-154.306 231.335-157.107 235.258-157.564 236.144-154.897 252.955-104.324 245.768-31.4053 240.336 6.11852 237.198 18.7719 234.102 31.3247 231.006 43.9782 205.794 116.527 210.669 222.853 216.438 284.401 218.48 308.19 216.767 331.945 210.998 355.371 198.775 402.217 203.188 507.455 205.565 551.278 206.257 564.49 203.188 577.404 197.096 588.936L188.922 603.893C173.663 627.65 191.656 627.65 191.656 627.65L231.732 627.65C239.871 627.65 246.662 620.537 246.333 612.034 243.955 548.874 251.403 502.383 255.131 484.391 256.152 478.957 258.228 474.538 260.235 469.434 272.829 438.889 274.836 378.1 275.165 355.036 275.165 349.931 276.187 344.86 277.899 339.75 328.493 194.779 326.216 121.108 326.216 121.108L332.147 121.108C332.147 121.108 329.876 194.779 380.464 339.75 382.142 344.86 383.164 349.931 383.164 355.036 383.526 378.1 385.567 438.889 398.128 469.434 400.135 474.538 402.184 478.957 403.204 484.391 406.959 502.383 414.441 548.874 412.036 612.034 411.707 620.537 418.491 627.65 426.631 627.65L466.707 627.65C466.707 627.65 484.7 627.65 469.447 603.893L461.273 588.936C455.175 577.404 452.112 564.49 452.804 551.278 455.175 507.455 459.588 402.217 447.365 355.371 441.595 331.945 439.882 308.19 441.924 284.401 447.694 222.853 452.569 116.527 427.357 43.9782 424.261 31.3247 421.164 18.7719 418.035 6.11852 412.594-31.4053 405.407-104.324 422.219-154.897 423.105-157.564 427.028-157.107 427.424-154.306 428.612-145.542 431.843-132.129 439.882-113.847 447.694-95.8211 455.175-77.8349 460.609-58.8211 465.686-39.4783 479.959-6.20584 517.657 41.6678 521.713 46.7452 525.138 52.5078 527.516 58.6397 528.867 63.0523 530.545 68.4925 531.237 75.6051 531.929 79.6953 532.258 83.7788 532.258 88.8496 532.916 92.248 534.992 95.9688 538.027 98.7024 542.44 102.786 549.559 104.801 561.461 102.094 593.396 94.6189 566.894 56.598 562.152 50.4996" fill="#D4D4D4" transform="matrix(1 0 0 1.00036 66.0766 83.0014)"/></g></g></g></g><path d="M395.499 49.5 395.499 709.31" stroke="#2F5597" stroke-width="2.99999" stroke-miterlimit="8" stroke-dasharray="8.99998 2.99999" fill="none" fill-rule="evenodd" transform="matrix(1.00035 0 0 1 0.874051 9.00162)"/><path d="M851.498 48.5 851.498 708.31" stroke="#2F5597" stroke-width="2.99999" stroke-miterlimit="8" stroke-dasharray="8.99998 2.99999" fill="none" fill-rule="evenodd" transform="matrix(1.00035 0 0 1 0.874051 9.00162)"/><text fill="#203864" font-family="Calibri,Calibri_MSFontService,sans-serif" font-weight="700" font-size="21" transform="matrix(1.00034 0 0 0.999998 329.51 85)">Right<tspan font-size="21" x="91.0745" y="0">Left</tspan><tspan fill="#000000" font-weight="400" font-size="21" x="-137.477" y="250.001">R Femur</tspan><tspan fill="#000000" font-weight="400" font-size="21" x="195.16" y="250.001">L Femur</tspan><tspan fill="#000000" font-weight="400" font-size="21" x="-135.258" y="465.001">R Tibi</tspan><tspan fill="#000000" font-weight="400" font-size="21" x="-87.5916" y="465.001">a</tspan><tspan fill="#000000" font-weight="400" font-size="21" x="209.64" y="465.001">L</tspan><tspan fill="#000000" font-weight="400" font-size="21" x="223.473" y="465.001">Tibia</tspan><tspan fill="#000000" font-weight="400" font-size="21" x="-141.233" y="589.001">R Foot</tspan><tspan fill="#000000" font-weight="400" font-size="21" x="220.411" y="589.001">L</tspan><tspan fill="#000000" font-weight="400" font-size="21" x="234.244" y="589.001">Foot</tspan><tspan fill="#000000" font-weight="400" font-size="21" x="362.234" y="68.0002">L</tspan><tspan fill="#000000" font-weight="400" font-size="21" x="376.067" y="68.0002">Hi</tspan><tspan fill="#000000" font-weight="400" font-size="21" x="394.234" y="68.0002">p</tspan><tspan fill="#000000" font-weight="400" font-size="21" x="635.076" y="68.0002">R</tspan><tspan fill="#000000" font-weight="400" font-size="21" x="651.576" y="68.0002">Hi</tspan><tspan fill="#000000" font-weight="400" font-size="21" x="669.742" y="68.0002">p</tspan><tspan fill="#2F5597" font-size="29" x="-3.32482" y="-42.0001">Front View</tspan><tspan font-size="21" x="539.929" y="0">Right</tspan><tspan fill="#2F5597" font-size="29" x="463.006" y="-40.0001">Back View</tspan><tspan font-size="21" x="457.627" y="0">Left</tspan></text><path d="M272.499 318.999C272.499 313.752 276.752 309.499 281.999 309.499 287.246 309.499 291.499 313.752 291.499 318.999 291.499 324.246 287.246 328.499 281.999 328.499 276.752 328.499 272.499 324.246 272.499 318.999Z" stroke="#203864" stroke-width="1.33333" stroke-miterlimit="8" fill="#203864" fill-rule="evenodd" transform="matrix(1.00035 0 0 1 0.874051 9.00162)"/><path d="M498.499 318.999C498.499 313.752 502.752 309.499 507.999 309.499 513.246 309.499 517.499 313.752 517.499 318.999 517.499 324.246 513.246 328.499 507.999 328.499 502.752 328.499 498.499 324.246 498.499 318.999Z" stroke="#203864" stroke-width="1.33333" stroke-miterlimit="8" fill="#203864" fill-rule="evenodd" transform="matrix(1.00035 0 0 1 0.874051 9.00162)"/><path d="M258.499 536.999C258.499 531.752 262.752 527.499 267.999 527.499 273.246 527.499 277.499 531.752 277.499 536.999 277.499 542.246 273.246 546.499 267.999 546.499 262.752 546.499 258.499 542.246 258.499 536.999Z" stroke="#203864" stroke-width="1.33333" stroke-miterlimit="8" fill="#203864" fill-rule="evenodd" transform="matrix(1.00035 0 0 1 0.874051 9.00162)"/><path d="M512.499 536.999C512.499 531.752 516.752 527.499 521.999 527.499 527.246 527.499 531.499 531.752 531.499 536.999 531.499 542.246 527.246 546.499 521.999 546.499 516.752 546.499 512.499 542.246 512.499 536.999Z" stroke="#203864" stroke-width="1.33333" stroke-miterlimit="8" fill="#203864" fill-rule="evenodd" transform="matrix(1.00035 0 0 1 0.874051 9.00162)"/><path d="M280.499 676.998C280.499 671.751 284.529 667.498 289.499 667.498 294.47 667.498 298.499 671.751 298.499 676.998 298.499 682.245 294.47 686.498 289.499 686.498 284.529 686.498 280.499 682.245 280.499 676.998Z" stroke="#203864" stroke-width="1.33333" stroke-miterlimit="8" fill="#203864" fill-rule="evenodd" transform="matrix(1.00035 0 0 1 0.874051 9.00162)"/><path d="M488.499 676.998C488.499 671.751 492.752 667.498 497.999 667.498 503.246 667.498 507.499 671.751 507.499 676.998 507.499 682.245 503.246 686.498 497.999 686.498 492.752 686.498 488.499 682.245 488.499 676.998Z" stroke="#203864" stroke-width="1.33333" stroke-miterlimit="8" fill="#203864" fill-rule="evenodd" transform="matrix(1.00035 0 0 1 0.874051 9.00162)"/><path d="M802.498 120C802.498 114.753 806.751 110.5 811.998 110.5 817.245 110.5 821.498 114.753 821.498 120 821.498 125.247 817.245 129.5 811.998 129.5 806.751 129.5 802.498 125.247 802.498 120Z" stroke="#203864" stroke-width="1.33333" stroke-miterlimit="8" fill="#203864" fill-rule="evenodd" transform="matrix(1.00035 0 0 1 0.874051 9.00162)"/><path d="M876.498 120C876.498 114.753 880.751 110.5 885.998 110.5 891.245 110.5 895.498 114.753 895.498 120 895.498 125.247 891.245 129.5 885.998 129.5 880.751 129.5 876.498 125.247 876.498 120Z" stroke="#203864" stroke-width="1.33333" stroke-miterlimit="8" fill="#203864" fill-rule="evenodd" transform="matrix(1.00035 0 0 1 0.874051 9.00162)"/></g></svg>