<svg xmlns="http://www.w3.org/2000/svg" xmlns:xlink="http://www.w3.org/1999/xlink" width="500" zoomAndPan="magnify" viewBox="0 0 375 374.999991" height="500" preserveAspectRatio="xMidYMid meet" version="1.0"><defs><clipPath id="2898c90053"><path d="M 98.804688 9.148438 L 276.554688 9.148438 L 276.554688 365.003906 L 98.804688 365.003906 Z M 98.804688 9.148438 " clip-rule="nonzero"/></clipPath></defs><rect x="-37.5" width="450" fill="#ffffff" y="-37.499999" height="449.999989" fill-opacity="1"/><rect x="-37.5" width="450" fill="#ffffff" y="-37.499999" height="449.999989" fill-opacity="1"/><g clip-path="url(#2898c90053)"><path fill="#d4d4d4" d="M 326.953125 29.371094 C 326.742188 28.96875 326.550781 28.777344 326.550781 28.777344 C 322.410156 20.078125 312.539062 -1.039062 309.566406 -15.257812 C 306.613281 -28.882812 301.476562 -42.316406 291.992188 -52.378906 C 291.78125 -52.570312 291.585938 -52.570312 291.394531 -52.78125 C 288.828125 -55.539062 286.851562 -58.703125 286.066406 -62.265625 C 283.5 -72.132812 278.746094 -93.058594 277.574219 -109.445312 C 276.195312 -129.394531 261.378906 -144.398438 240.429688 -147.367188 C 240.429688 -147.367188 224.039062 -159.019531 212.597656 -159.996094 L 209.222656 -181.324219 C 209.222656 -181.324219 216.144531 -191.980469 216.738281 -199.089844 C 216.738281 -199.089844 225.230469 -204.816406 216.738281 -215.472656 C 216.738281 -215.472656 222.46875 -243.527344 191.457031 -246.285156 C 160.441406 -243.527344 166.171875 -215.472656 166.171875 -215.472656 C 157.683594 -204.816406 166.171875 -199.089844 166.171875 -199.089844 C 166.769531 -191.980469 173.6875 -181.324219 173.6875 -181.324219 L 170.332031 -159.996094 C 158.871094 -159.019531 142.480469 -147.367188 142.480469 -147.367188 C 121.53125 -144.398438 106.714844 -129.394531 105.335938 -109.445312 C 104.164062 -93.058594 99.414062 -72.132812 96.84375 -62.265625 C 96.058594 -58.703125 94.082031 -55.539062 91.515625 -52.78125 C 91.324219 -52.570312 91.113281 -52.570312 90.921875 -52.378906 C 81.453125 -42.316406 76.296875 -28.882812 73.34375 -15.257812 C 70.390625 -1.039062 60.5 20.078125 56.363281 28.777344 C 56.363281 28.777344 56.152344 28.96875 55.960938 29.371094 C 53.199219 32.917969 37.789062 55.03125 56.363281 59.378906 C 63.28125 60.953125 67.421875 59.78125 69.988281 57.40625 C 71.753906 55.816406 72.941406 53.652344 73.34375 51.675781 C 74.53125 47.730469 73.9375 43.972656 73.9375 43.972656 C 74.339844 39.835938 75.320312 36.671875 76.105469 34.105469 C 77.503906 30.539062 79.457031 27.1875 81.835938 24.234375 C 103.761719 -3.609375 112.0625 -22.960938 115.015625 -34.210938 C 118.175781 -45.269531 122.527344 -55.730469 127.070312 -66.214844 C 131.75 -76.847656 133.625 -84.648438 134.316406 -89.746094 C 134.546875 -91.375 136.828125 -91.640625 137.34375 -90.089844 C 147.121094 -60.675781 142.941406 -18.265625 139.78125 3.558594 C 137.957031 10.917969 136.15625 18.21875 134.355469 25.578125 C 119.691406 67.773438 122.527344 129.613281 125.882812 165.410156 C 127.070312 179.246094 126.074219 193.0625 122.71875 206.6875 C 115.609375 233.933594 118.175781 295.140625 119.558594 320.628906 C 119.960938 328.3125 118.175781 335.824219 114.632812 342.53125 L 109.878906 351.230469 C 101.003906 365.046875 111.46875 365.046875 111.46875 365.046875 L 134.777344 365.046875 C 139.511719 365.046875 143.460938 360.910156 143.269531 355.964844 C 141.886719 319.230469 146.21875 292.191406 148.386719 281.726562 C 148.980469 278.566406 150.1875 275.996094 151.355469 273.027344 C 158.679688 255.261719 159.847656 219.90625 160.039062 206.492188 C 160.039062 203.523438 160.632812 200.574219 161.628906 197.601562 C 191.054688 113.285156 189.730469 70.4375 189.730469 70.4375 L 193.179688 70.4375 C 193.179688 70.4375 191.859375 113.285156 221.28125 197.601562 C 222.257812 200.574219 222.851562 203.523438 222.851562 206.492188 C 223.0625 219.90625 224.25 255.261719 231.554688 273.027344 C 232.722656 275.996094 233.914062 278.566406 234.507812 281.726562 C 236.691406 292.191406 241.042969 319.230469 239.644531 355.964844 C 239.453125 360.910156 243.398438 365.046875 248.132812 365.046875 L 271.441406 365.046875 C 271.441406 365.046875 281.90625 365.046875 273.035156 351.230469 L 268.28125 342.53125 C 264.734375 335.824219 262.953125 328.3125 263.355469 320.628906 C 264.734375 295.140625 267.300781 233.933594 260.191406 206.6875 C 256.835938 193.0625 255.839844 179.246094 257.027344 165.410156 C 260.382812 129.613281 263.21875 67.773438 248.554688 25.578125 C 246.753906 18.21875 244.953125 10.917969 243.132812 3.558594 C 239.96875 -18.265625 235.789062 -60.675781 245.566406 -90.089844 C 246.082031 -91.640625 248.363281 -91.375 248.59375 -89.746094 C 249.285156 -84.648438 251.164062 -76.847656 255.839844 -66.214844 C 260.382812 -55.730469 264.734375 -45.269531 267.894531 -34.210938 C 270.847656 -22.960938 279.148438 -3.609375 301.074219 24.234375 C 303.433594 27.1875 305.425781 30.539062 306.808594 34.105469 C 307.59375 36.671875 308.570312 39.835938 308.972656 43.972656 C 309.375 46.351562 309.566406 48.726562 309.566406 51.675781 C 309.949219 53.652344 311.15625 55.816406 312.921875 57.40625 C 315.488281 59.78125 319.628906 60.953125 326.550781 59.378906 C 345.125 55.03125 329.710938 32.917969 326.953125 29.371094 " fill-opacity="1" fill-rule="nonzero"/></g></svg>