<svg xmlns="http://www.w3.org/2000/svg" xmlns:xlink="http://www.w3.org/1999/xlink" width="500" zoomAndPan="magnify" viewBox="0 0 375 374.999991" height="500" preserveAspectRatio="xMidYMid meet" version="1.0"><defs><clipPath id="1705354480"><path d="M 27 18.007812 L 347 18.007812 L 347 357.007812 L 27 357.007812 Z M 27 18.007812 " clip-rule="nonzero"/></clipPath></defs><rect x="-37.5" width="450" fill="#ffffff" y="-37.499999" height="449.999989" fill-opacity="1"/><rect x="-37.5" width="450" fill="#ffffff" y="-37.499999" height="449.999989" fill-opacity="1"/><g clip-path="url(#1705354480)"><path fill="#d4d4d4" d="M 337.425781 323.382812 C 337.191406 322.9375 336.980469 322.726562 336.980469 322.726562 C 332.394531 313.085938 321.46875 289.691406 318.179688 273.933594 C 314.910156 258.839844 309.222656 243.957031 298.71875 232.808594 C 298.484375 232.597656 298.273438 232.597656 298.0625 232.363281 C 295.21875 229.304688 293.03125 225.800781 292.160156 221.851562 C 289.320312 210.917969 284.054688 187.734375 282.761719 169.582031 C 281.234375 147.476562 264.832031 130.851562 241.636719 127.5625 C 241.636719 127.5625 223.492188 114.652344 210.824219 113.570312 L 207.089844 89.9375 C 207.089844 89.9375 214.75 78.132812 215.40625 70.257812 C 215.40625 70.257812 224.808594 63.910156 215.40625 52.101562 C 215.40625 52.101562 221.753906 21.019531 187.417969 17.960938 C 153.085938 21.019531 159.429688 52.101562 159.429688 52.101562 C 150.027344 63.910156 159.429688 70.257812 159.429688 70.257812 C 160.085938 78.132812 167.746094 89.9375 167.746094 89.9375 L 164.035156 113.570312 C 151.34375 114.652344 133.199219 127.5625 133.199219 127.5625 C 110.007812 130.851562 93.601562 147.476562 92.074219 169.582031 C 90.78125 187.734375 85.519531 210.917969 82.675781 221.851562 C 81.804688 225.800781 79.621094 229.304688 76.777344 232.363281 C 76.5625 232.597656 76.328125 232.597656 76.117188 232.808594 C 65.636719 243.957031 59.925781 258.839844 56.660156 273.933594 C 53.390625 289.691406 42.441406 313.085938 37.859375 322.726562 C 37.859375 322.726562 37.625 322.9375 37.410156 323.382812 C 34.355469 327.3125 17.296875 351.8125 37.859375 356.632812 C 45.519531 358.375 50.101562 357.078125 52.945312 354.445312 C 54.898438 352.683594 56.214844 350.285156 56.660156 348.097656 C 57.972656 343.726562 57.316406 339.5625 57.316406 339.5625 C 57.761719 334.976562 58.84375 331.472656 59.714844 328.628906 C 61.261719 324.679688 63.429688 320.964844 66.058594 317.695312 C 90.335938 286.84375 99.523438 265.398438 102.792969 252.9375 C 106.292969 240.6875 111.109375 229.09375 116.140625 217.480469 C 121.316406 205.695312 123.398438 197.054688 124.160156 191.40625 C 124.414062 189.601562 126.941406 189.304688 127.511719 191.023438 C 138.335938 223.617188 133.710938 270.601562 130.207031 294.785156 C 128.191406 302.9375 126.199219 311.027344 124.203125 319.179688 C 107.96875 365.933594 111.109375 434.449219 114.824219 474.109375 C 116.140625 489.441406 115.035156 504.75 111.324219 519.84375 C 103.449219 550.035156 106.292969 617.851562 107.820312 646.089844 C 108.265625 654.605469 106.292969 662.925781 102.367188 670.359375 L 97.105469 679.996094 C 87.28125 695.304688 98.867188 695.304688 98.867188 695.304688 L 124.671875 695.304688 C 129.910156 695.304688 134.28125 690.71875 134.070312 685.242188 C 132.542969 644.539062 137.339844 614.582031 139.738281 602.988281 C 140.394531 599.484375 141.730469 596.640625 143.027344 593.351562 C 151.132812 573.667969 152.425781 534.496094 152.636719 519.632812 C 152.636719 516.339844 153.296875 513.070312 154.398438 509.78125 C 186.972656 416.359375 185.507812 368.886719 185.507812 368.886719 L 189.328125 368.886719 C 189.328125 368.886719 187.863281 416.359375 220.4375 509.78125 C 221.519531 513.070312 222.175781 516.339844 222.175781 519.632812 C 222.410156 534.496094 223.726562 573.667969 231.8125 593.351562 C 233.105469 596.640625 234.421875 599.484375 235.078125 602.988281 C 237.5 614.582031 242.316406 644.539062 240.765625 685.242188 C 240.554688 690.71875 244.925781 695.304688 250.167969 695.304688 L 275.972656 695.304688 C 275.972656 695.304688 287.558594 695.304688 277.730469 679.996094 L 272.46875 670.359375 C 268.542969 662.925781 266.570312 654.605469 267.015625 646.089844 C 268.542969 617.851562 271.386719 550.035156 263.515625 519.84375 C 259.800781 504.75 258.699219 489.441406 260.011719 474.109375 C 263.726562 434.449219 266.867188 365.933594 250.632812 319.179688 C 248.640625 311.027344 246.644531 302.9375 244.628906 294.785156 C 241.128906 270.601562 236.5 223.617188 247.324219 191.023438 C 247.894531 189.304688 250.421875 189.601562 250.675781 191.40625 C 251.441406 197.054688 253.519531 205.695312 258.699219 217.480469 C 263.726562 229.09375 268.542969 240.6875 272.046875 252.9375 C 275.3125 265.398438 284.5 286.84375 308.777344 317.695312 C 311.386719 320.964844 313.59375 324.679688 315.121094 328.628906 C 315.992188 331.472656 317.074219 334.976562 317.519531 339.5625 C 317.964844 342.195312 318.179688 344.828125 318.179688 348.097656 C 318.601562 350.285156 319.9375 352.683594 321.890625 354.445312 C 324.734375 357.078125 329.320312 358.375 336.980469 356.632812 C 357.542969 351.8125 340.480469 327.3125 337.425781 323.382812 " fill-opacity="1" fill-rule="nonzero"/></g></svg>