<svg width="1224" height="678" xmlns="http://www.w3.org/2000/svg" xmlns:xlink="http://www.w3.org/1999/xlink" xml:space="preserve" overflow="hidden"><defs><clipPath id="clip0"><rect x="28" y="21" width="1224" height="678"/></clipPath><clipPath id="clip1"><rect x="707" y="104" width="546" height="577"/></clipPath><clipPath id="clip2"><rect x="707" y="103" width="546" height="578"/></clipPath><clipPath id="clip3"><rect x="671" y="76" width="626" height="627"/></clipPath><clipPath id="clip4"><rect x="716" y="106" width="534" height="568"/></clipPath><clipPath id="clip5"><rect x="76" y="104" width="546" height="577"/></clipPath><clipPath id="clip6"><rect x="76" y="103" width="546" height="578"/></clipPath><clipPath id="clip7"><rect x="40" y="76" width="626" height="627"/></clipPath><clipPath id="clip8"><rect x="85" y="106" width="534" height="568"/></clipPath></defs><g clip-path="url(#clip0)" transform="translate(-28 -21)"><g clip-path="url(#clip1)"><g clip-path="url(#clip2)"><g clip-path="url(#clip3)"><path d="M-62.3573-62.3573 685.93-62.3573 685.93 685.93-62.3573 685.93Z" fill="#FFFFFF" transform="matrix(1 0 0 1.00287 672.408 76.9904)"/><path d="M-62.3573-62.3573 685.93-62.3573 685.93 685.93-62.3573 685.93Z" fill="#FFFFFF" transform="matrix(1 0 0 1.00287 672.408 76.9904)"/><g clip-path="url(#clip4)"><path d="M561.092 537.741C560.702 537 560.352 536.649 560.352 536.649 552.725 520.618 534.558 481.716 529.089 455.514 523.651 430.415 514.194 405.666 496.728 387.128 496.338 386.777 495.988 386.777 495.637 386.388 490.908 381.302 487.27 375.475 485.821 368.909 481.099 350.727 472.343 312.176 470.194 281.991 467.654 245.233 440.379 217.588 401.808 212.119 401.808 212.119 371.637 190.651 350.571 188.851L344.362 149.554C344.362 149.554 357.099 129.924 358.19 116.829 358.19 116.829 373.825 106.273 358.19 86.6377 358.19 86.6377 368.746 34.9526 311.65 29.8666 254.561 34.9526 265.109 86.6377 265.109 86.6377 249.474 106.273 265.109 116.829 265.109 116.829 266.201 129.924 278.939 149.554 278.939 149.554L272.768 188.851C251.664 190.651 221.492 212.119 221.492 212.119 182.927 217.588 155.647 245.233 153.107 281.991 150.956 312.176 142.207 350.727 137.478 368.909 136.03 375.475 132.399 381.302 127.67 386.388 127.313 386.777 126.923 386.777 126.573 387.128 109.144 405.666 99.6483 430.415 94.218 455.514 88.7812 481.716 70.5742 520.618 62.9549 536.649 62.9549 536.649 62.5651 537 62.2079 537.741 57.1283 544.275 28.7623 585.016 62.9549 593.031 75.6926 595.928 83.3119 593.771 88.0407 589.393 91.2884 586.464 93.4774 582.476 94.218 578.838 96.4005 571.569 95.3092 564.645 95.3092 564.645 96.0497 557.02 97.849 551.193 99.2975 546.464 101.87 539.897 105.475 533.719 109.846 528.283 150.216 476.982 165.494 441.32 170.931 420.6 176.75 400.23 184.759 380.952 193.126 361.639 201.732 342.042 205.194 327.675 206.461 318.282 206.883 315.281 211.086 314.788 212.035 317.646 230.033 371.845 222.343 449.973 216.516 490.187 213.165 503.743 209.852 517.195 206.533 530.752 179.537 608.497 184.759 722.429 190.937 788.378 193.126 813.873 191.287 839.329 185.117 864.428 172.022 914.632 176.75 1027.4 179.29 1074.36 180.03 1088.52 176.75 1102.36 170.222 1114.71L161.473 1130.73C145.137 1156.19 164.403 1156.19 164.403 1156.19L207.312 1156.19C216.023 1156.19 223.291 1148.57 222.94 1139.46 220.4 1071.78 228.377 1021.96 232.365 1002.68 233.456 996.859 235.678 992.13 237.835 986.662 251.313 953.93 253.463 888.793 253.814 864.077 253.814 858.601 254.911 853.165 256.744 847.695 310.91 692.347 308.474 613.408 308.474 613.408L314.827 613.408C314.827 613.408 312.391 692.347 366.557 847.695 368.357 853.165 369.448 858.601 369.448 864.077 369.837 888.793 372.026 953.93 385.472 986.662 387.622 992.13 389.811 996.859 390.903 1002.68 394.93 1021.96 402.938 1071.78 400.36 1139.46 400.009 1148.57 407.278 1156.19 415.995 1156.19L458.904 1156.19C458.904 1156.19 478.17 1156.19 461.827 1130.73L453.077 1114.71C446.55 1102.36 443.269 1088.52 444.01 1074.36 446.55 1027.4 451.279 914.632 438.189 864.428 432.013 839.329 430.181 813.873 432.364 788.378 438.541 722.429 443.763 608.497 416.768 530.752 413.455 517.195 410.136 503.743 406.784 490.187 400.964 449.973 393.266 371.845 411.266 317.646 412.214 314.788 416.417 315.281 416.839 318.282 418.112 327.675 421.567 342.042 430.181 361.639 438.541 380.952 446.55 400.23 452.376 420.6 457.807 441.32 473.084 476.982 513.454 528.283 517.792 533.719 521.463 539.897 524.002 546.464 525.451 551.193 527.25 557.02 527.991 564.645 528.731 569.023 529.089 573.401 529.089 578.838 529.79 582.476 532.012 586.464 535.259 589.393 539.988 593.771 547.614 595.928 560.352 593.031 594.545 585.016 566.172 544.275 561.092 537.741" fill="#D4D4D4" transform="matrix(1 0 0 1.00287 672.408 76.9904)"/></g></g></g></g><g clip-path="url(#clip5)"><g clip-path="url(#clip6)"><g clip-path="url(#clip7)"><path d="M-62.3573-62.3573 685.93-62.3573 685.93 685.93-62.3573 685.93Z" fill="#FFFFFF" transform="matrix(1 0 0 1.00287 41.2098 76.9904)"/><path d="M-62.3573-62.3573 685.93-62.3573 685.93 685.93-62.3573 685.93Z" fill="#FFFFFF" transform="matrix(1 0 0 1.00287 41.2098 76.9904)"/><g clip-path="url(#clip8)"><path d="M561.092 537.741C560.702 537 560.352 536.649 560.352 536.649 552.725 520.618 534.558 481.716 529.089 455.514 523.651 430.415 514.194 405.666 496.728 387.128 496.338 386.777 495.988 386.777 495.637 386.388 490.908 381.302 487.27 375.475 485.821 368.909 481.099 350.727 472.343 312.176 470.194 281.991 467.654 245.233 440.379 217.588 401.808 212.119 401.808 212.119 371.637 190.651 350.571 188.851L344.362 149.554C344.362 149.554 357.099 129.924 358.19 116.829 358.19 116.829 373.825 106.273 358.19 86.6377 358.19 86.6377 368.746 34.9526 311.65 29.8666 254.561 34.9526 265.109 86.6377 265.109 86.6377 249.474 106.273 265.109 116.829 265.109 116.829 266.201 129.924 278.939 149.554 278.939 149.554L272.768 188.851C251.664 190.651 221.492 212.119 221.492 212.119 182.927 217.588 155.647 245.233 153.107 281.991 150.956 312.176 142.207 350.727 137.478 368.909 136.03 375.475 132.399 381.302 127.67 386.388 127.313 386.777 126.923 386.777 126.573 387.128 109.144 405.666 99.6483 430.415 94.218 455.514 88.7812 481.716 70.5742 520.618 62.9549 536.649 62.9549 536.649 62.5651 537 62.2079 537.741 57.1283 544.275 28.7623 585.016 62.9549 593.031 75.6926 595.928 83.3119 593.771 88.0407 589.393 91.2884 586.464 93.4774 582.476 94.218 578.838 96.4005 571.569 95.3092 564.645 95.3092 564.645 96.0497 557.02 97.849 551.193 99.2975 546.464 101.87 539.897 105.475 533.719 109.846 528.283 150.216 476.982 165.494 441.32 170.931 420.6 176.75 400.23 184.759 380.952 193.126 361.639 201.732 342.042 205.194 327.675 206.461 318.282 206.883 315.281 211.086 314.788 212.035 317.646 230.033 371.845 222.343 449.973 216.516 490.187 213.165 503.743 209.852 517.195 206.533 530.752 179.537 608.497 184.759 722.429 190.937 788.378 193.126 813.873 191.287 839.329 185.117 864.428 172.022 914.632 176.75 1027.4 179.29 1074.36 180.03 1088.52 176.75 1102.36 170.222 1114.71L161.473 1130.73C145.137 1156.19 164.403 1156.19 164.403 1156.19L207.312 1156.19C216.023 1156.19 223.291 1148.57 222.94 1139.46 220.4 1071.78 228.377 1021.96 232.365 1002.68 233.456 996.859 235.678 992.13 237.835 986.662 251.313 953.93 253.463 888.793 253.814 864.077 253.814 858.601 254.911 853.165 256.744 847.695 310.91 692.347 308.474 613.408 308.474 613.408L314.827 613.408C314.827 613.408 312.391 692.347 366.557 847.695 368.357 853.165 369.448 858.601 369.448 864.077 369.837 888.793 372.026 953.93 385.472 986.662 387.622 992.13 389.811 996.859 390.903 1002.68 394.93 1021.96 402.938 1071.78 400.36 1139.46 400.009 1148.57 407.278 1156.19 415.995 1156.19L458.904 1156.19C458.904 1156.19 478.17 1156.19 461.827 1130.73L453.077 1114.71C446.55 1102.36 443.269 1088.52 444.01 1074.36 446.55 1027.4 451.279 914.632 438.189 864.428 432.013 839.329 430.181 813.873 432.364 788.378 438.541 722.429 443.763 608.497 416.768 530.752 413.455 517.195 410.136 503.743 406.784 490.187 400.964 449.973 393.266 371.845 411.266 317.646 412.214 314.788 416.417 315.281 416.839 318.282 418.112 327.675 421.567 342.042 430.181 361.639 438.541 380.952 446.55 400.23 452.376 420.6 457.807 441.32 473.084 476.982 513.454 528.283 517.792 533.719 521.463 539.897 524.002 546.464 525.451 551.193 527.25 557.02 527.991 564.645 528.731 569.023 529.089 573.401 529.089 578.838 529.79 582.476 532.012 586.464 535.259 589.393 539.988 593.771 547.614 595.928 560.352 593.031 594.545 585.016 566.172 544.275 561.092 537.741" fill="#D4D4D4" transform="matrix(1 0 0 1.00287 41.2098 76.9904)"/></g></g></g></g><path d="M1000.81 62.5197 1000.81 722.539" stroke="#2F5597" stroke-width="3.00094" stroke-miterlimit="8" stroke-dasharray="9.00282 3.00094" fill="none" fill-rule="evenodd" transform="matrix(1 0 0 1.00068 -16.494 -4.3332)"/><text fill="#203864" font-family="Calibri,Calibri_MSFontService,sans-serif" font-weight="700" font-size="21" transform="matrix(1.00031 0 0 1.001 285.372 86)">Right<tspan font-size="21" x="91.0746" y="0">Left</tspan><tspan fill="#000000" font-weight="400" font-size="21" x="-128.627" y="202.798">R </tspan><tspan fill="#000000" font-weight="400" font-size="21" x="-112.127" y="202.798">Shoulder</tspan><tspan fill="#2F5597" font-size="29" x="-3.32482" y="-42.9572">Front View</tspan><tspan font-size="21" x="716.553" y="0">Right</tspan><tspan fill="#2F5597" font-size="29" x="639.63" y="-40.9592">Back View</tspan><tspan font-size="21" x="634.251" y="0">Left</tspan></text><path d="M273.586 296.093C273.586 290.844 277.84 286.59 283.089 286.59 288.337 286.59 292.592 290.844 292.592 296.093 292.592 301.342 288.337 305.596 283.089 305.596 277.84 305.596 273.586 301.342 273.586 296.093Z" stroke="#203864" stroke-width="1.33375" stroke-miterlimit="8" fill="#203864" fill-rule="evenodd" transform="matrix(1 0 0 1.00068 -16.494 -4.3332)"/><path d="M437.637 296.093C437.637 290.844 441.892 286.59 447.14 286.59 452.389 286.59 456.643 290.844 456.643 296.093 456.643 301.342 452.389 305.596 447.14 305.596 441.892 305.596 437.637 301.342 437.637 296.093Z" stroke="#203864" stroke-width="1.33375" stroke-miterlimit="8" fill="#203864" fill-rule="evenodd" transform="matrix(1 0 0 1.00068 -16.494 -4.3332)"/><path d="M198.562 406.628C198.562 401.656 202.593 397.625 207.565 397.625 212.538 397.625 216.568 401.656 216.568 406.628 216.568 411.6 212.538 415.63 207.565 415.63 202.593 415.63 198.562 411.6 198.562 406.628Z" stroke="#203864" stroke-width="1.33375" stroke-miterlimit="8" fill="#203864" fill-rule="evenodd" transform="matrix(1 0 0 1.00068 -16.494 -4.3332)"/><path d="M521.664 406.628C521.664 401.656 525.918 397.625 531.167 397.625 536.415 397.625 540.67 401.656 540.67 406.628 540.67 411.6 536.415 415.63 531.167 415.63 525.918 415.63 521.664 411.6 521.664 406.628Z" stroke="#203864" stroke-width="1.33375" stroke-miterlimit="8" fill="#203864" fill-rule="evenodd" transform="matrix(1 0 0 1.00068 -16.494 -4.3332)"/><path d="M141.544 536.168C141.544 530.92 145.799 526.665 151.047 526.665 156.296 526.665 160.55 530.92 160.55 536.168 160.55 541.417 156.296 545.671 151.047 545.671 145.799 545.671 141.544 541.417 141.544 536.168Z" stroke="#203864" stroke-width="1.33375" stroke-miterlimit="8" fill="#203864" fill-rule="evenodd" transform="matrix(1 0 0 1.00068 -16.494 -4.3332)"/><path d="M576.681 536.168C576.681 530.92 580.935 526.665 586.184 526.665 591.433 526.665 595.687 530.92 595.687 536.168 595.687 541.417 591.433 545.671 586.184 545.671 580.935 545.671 576.681 541.417 576.681 536.168Z" stroke="#203864" stroke-width="1.33375" stroke-miterlimit="8" fill="#203864" fill-rule="evenodd" transform="matrix(1 0 0 1.00068 -16.494 -4.3332)"/><path d="M114.536 647.203C114.536 641.954 118.79 637.7 124.039 637.7 129.288 637.7 133.542 641.954 133.542 647.203 133.542 652.452 129.288 656.706 124.039 656.706 118.79 656.706 114.536 652.452 114.536 647.203Z" stroke="#203864" stroke-width="1.33375" stroke-miterlimit="8" fill="#203864" fill-rule="evenodd" transform="matrix(1 0 0 1.00068 -16.494 -4.3332)"/><path d="M601.689 647.203C601.689 641.954 605.943 637.7 611.192 637.7 616.44 637.7 620.695 641.954 620.695 647.203 620.695 652.452 616.44 656.706 611.192 656.706 605.943 656.706 601.689 652.452 601.689 647.203Z" stroke="#203864" stroke-width="1.33375" stroke-miterlimit="8" fill="#203864" fill-rule="evenodd" transform="matrix(1 0 0 1.00068 -16.494 -4.3332)"/><path d="M929.792 338.106C929.792 332.857 934.046 328.603 939.295 328.603 944.543 328.603 948.798 332.857 948.798 338.106 948.798 343.355 944.543 347.609 939.295 347.609 934.046 347.609 929.792 343.355 929.792 338.106Z" stroke="#203864" stroke-width="1.33375" stroke-miterlimit="8" fill="#203864" fill-rule="evenodd" transform="matrix(1 0 0 1.00068 -16.494 -4.3332)"/><path d="M1044.83 338.106C1044.83 332.857 1049.08 328.603 1054.33 328.603 1059.58 328.603 1063.83 332.857 1063.83 338.106 1063.83 343.355 1059.58 347.609 1054.33 347.609 1049.08 347.609 1044.83 343.355 1044.83 338.106Z" stroke="#203864" stroke-width="1.33375" stroke-miterlimit="8" fill="#203864" fill-rule="evenodd" transform="matrix(1 0 0 1.00068 -16.494 -4.3332)"/><path d="M990.811 470.148C990.811 464.899 995.065 460.645 1000.31 460.645 1005.57 460.645 1009.82 464.899 1009.82 470.148 1009.82 475.396 1005.57 479.651 1000.31 479.651 995.065 479.651 990.811 475.396 990.811 470.148Z" stroke="#203864" stroke-width="1.33375" stroke-miterlimit="8" fill="#203864" fill-rule="evenodd" transform="matrix(1 0 0 1.00068 -16.494 -4.3332)"/><path d="M990.811 604.69C990.811 599.717 995.065 595.687 1000.31 595.687 1005.57 595.687 1009.82 599.717 1009.82 604.69 1009.82 609.662 1005.57 613.693 1000.31 613.693 995.065 613.693 990.811 609.662 990.811 604.69Z" stroke="#203864" stroke-width="1.33375" stroke-miterlimit="8" fill="#203864" fill-rule="evenodd" transform="matrix(1 0 0 1.00068 -16.494 -4.3332)"/><text font-family="Calibri,Calibri_MSFontService,sans-serif" font-weight="400" font-size="21" transform="matrix(1.00031 0 0 1.001 450.34 290)">L<tspan font-size="21" x="13.8333" y="0">Shoulder</tspan><tspan font-size="21" x="-341.696" y="117.883">R </tspan><tspan font-size="21" x="-325.696" y="117.883">Bicep</tspan><tspan font-size="21" x="83.408" y="118.882">L</tspan><tspan font-size="21" x="97.2413" y="118.882">Bicep</tspan><tspan font-size="21" x="-421.917" y="247.753">R </tspan>Forearm<tspan font-size="21" x="133.624" y="247.753">L</tspan><tspan font-size="21" x="147.457" y="247.753">Forearm</tspan><tspan font-size="21" x="-414.963" y="396.605">R </tspan><tspan font-size="21" x="-398.963" y="396.605">Hand</tspan><tspan font-size="21" x="145.225" y="402.599">L</tspan><tspan font-size="21" x="159.059" y="402.599">Hand</tspan></text><path d="M369.616 61.5194 369.616 721.538" stroke="#2F5597" stroke-width="3.00094" stroke-miterlimit="8" stroke-dasharray="9.00282 3.00094" fill="none" fill-rule="evenodd" transform="matrix(1 0 0 1.00068 -16.494 -4.3332)"/><text font-family="Calibri,Calibri_MSFontService,sans-serif" font-weight="400" font-size="21" transform="matrix(1.00031 0 0 1.001 879.219 313)">L<tspan font-size="21" x="13.8334" y="0">Scapula</tspan><tspan font-size="21" x="122.693" y="0.999005">R</tspan><tspan font-size="21" x="139.193" y="0.999005">Scapula</tspan><tspan font-size="21" x="18.2397" y="158.842">Thoracic</tspan><tspan font-size="21" x="121.202" y="293.708">Lumba</tspan><tspan font-size="21" x="179.702" y="293.708">r</tspan></text></g></svg>